<svg width="32" height="32" viewBox="0 0 32 32" fill="none" xmlns="http://www.w3.org/2000/svg">
    <path d="M17.7197 21C16.2364 21 14.7863 20.5601 13.553 19.736C12.3196 18.9119 11.3583 17.7406 10.7906 16.3701C10.223 14.9997 10.0745 13.4917 10.3638 12.0368C10.6532 10.582 11.3675 9.2456 12.4164 8.1967C13.4653 7.14781 14.8017 6.4335 16.2566 6.14411C17.7114 5.85472 19.2194 6.00325 20.5899 6.57091C21.9603 7.13856 23.1316 8.09986 23.9558 9.33323C24.7799 10.5666 25.2197 12.0166 25.2197 13.5C25.2197 15.4891 24.4296 17.3968 23.023 18.8033C21.6165 20.2098 19.7089 21 17.7197 21ZM17.7197 7.5C16.533 7.5 15.373 7.8519 14.3863 8.51119C13.3996 9.17047 12.6306 10.1075 12.1765 11.2039C11.7223 12.3003 11.6035 13.5067 11.835 14.6705C12.0665 15.8344 12.638 16.9035 13.4771 17.7426C14.3162 18.5818 15.3853 19.1532 16.5492 19.3847C17.7131 19.6162 18.9195 19.4974 20.0158 19.0433C21.1122 18.5892 22.0493 17.8201 22.7085 16.8334C23.3678 15.8467 23.7197 14.6867 23.7197 13.5C23.7197 11.9087 23.0876 10.3826 21.9624 9.25736C20.8372 8.13214 19.311 7.5 17.7197 7.5Z" fill="#1F1F1F"/>
    <path d="M23.6708 18.0581L22.6104 19.1189L26.0263 22.5336C26.3192 22.8265 26.7941 22.8264 27.0869 22.5334C27.3798 22.2405 27.3797 21.7656 27.0867 21.4728L23.6708 18.0581Z" fill="#1F1F1F"/>
    <path d="M14.25 24.5303H7.75C7.33579 24.5303 7 24.8661 7 25.2803C7 25.6945 7.33579 26.0303 7.75 26.0303H14.25C14.6642 26.0303 15 25.6945 15 25.2803C15 24.8661 14.6642 24.5303 14.25 24.5303Z" fill="#1F1F1F"/>
    <path d="M11.58 21.1802H7.75C7.33579 21.1802 7 21.516 7 21.9302C7 22.3444 7.33579 22.6802 7.75 22.6802H11.58C11.9942 22.6802 12.33 22.3444 12.33 21.9302C12.33 21.516 11.9942 21.1802 11.58 21.1802Z" fill="#1F1F1F"/>
    <path d="M9.25 17.8301H7.75C7.33579 17.8301 7 18.1659 7 18.5801C7 18.9943 7.33579 19.3301 7.75 19.3301H9.25C9.66421 19.3301 10 18.9943 10 18.5801C10 18.1659 9.66421 17.8301 9.25 17.8301Z" fill="#1F1F1F"/>
</svg>
