<svg width="32" height="32" viewBox="0 0 34 32" fill="none" xmlns="http://www.w3.org/2000/svg">
    <path d="M26.0001 7.7501C25.4591 7.19519 24.8133 6.7533 24.1001 6.4501C23.3849 6.14887 22.6161 5.99578 21.8401 6.0001C21.0697 5.99715 20.307 6.15377 19.6001 6.4601C18.8911 6.76102 18.2487 7.19947 17.7101 7.7501L17.0001 8.4801L16.3001 7.7501C15.7642 7.18923 15.1201 6.74282 14.4068 6.43783C13.6935 6.13283 12.9258 5.97559 12.1501 5.97559C11.3743 5.97559 10.6066 6.13283 9.89336 6.43783C9.18008 6.74282 8.53602 7.18923 8.00009 7.7501L7.68009 8.0701C6.57169 9.19299 5.9502 10.7073 5.9502 12.2851C5.9502 13.8629 6.57169 15.3772 7.68009 16.5001L16.0001 25.0001L17.0001 26.0001L17.8801 25.0501L26.2601 16.5001C27.3685 15.3772 27.99 13.8629 27.99 12.2851C27.99 10.7073 27.3685 9.19299 26.2601 8.0701L26.0001 7.7501ZM25.2801 15.4501L17.0001 23.8701L8.74009 15.4501C7.91837 14.6014 7.45893 13.4664 7.45893 12.2851C7.45893 11.1038 7.91837 9.96878 8.74009 9.1201L9.06009 8.8001C9.46277 8.3852 9.94463 8.05536 10.4771 7.83012C11.0096 7.60488 11.5819 7.48882 12.1601 7.48882C12.7383 7.48882 13.3106 7.60488 13.8431 7.83012C14.3756 8.05536 14.8574 8.3852 15.2601 8.8001L17.0001 10.6001L18.7401 8.8001C19.1428 8.3852 19.6246 8.05536 20.1571 7.83012C20.6896 7.60488 21.2619 7.48882 21.8401 7.48882C22.4183 7.48882 22.9906 7.60488 23.5231 7.83012C24.0556 8.05536 24.5374 8.3852 24.9401 8.8001L25.2601 9.1201C26.0818 9.96878 26.5413 11.1038 26.5413 12.2851C26.5413 13.4664 26.0818 14.6014 25.2601 15.4501H25.2801Z" fill="#1F1F1F"/>
</svg>
