<svg width="21" height="20" viewBox="2 2 15 14" fill="none" xmlns="http://www.w3.org/2000/svg">
    <path d="M8.61628 2.60188C10.3027 1.08772 12.9089 1.13798 14.5336 2.76558C16.1576 4.39389 16.2136 6.98714 14.7031 8.67863L8.61484 14.7755L2.52804 8.67863C1.01747 6.98714 1.07419 4.38959 2.69748 2.76558C4.32364 1.14013 6.92478 1.08557 8.61628 2.60188ZM13.517 3.78004C12.4401 2.70168 10.7026 2.65789 9.57546 3.6702L8.617 4.5303L7.65781 3.67092C6.52704 2.65717 4.79318 2.70168 3.71338 3.78148C2.64364 4.85123 2.58979 6.56354 3.57554 7.69504L8.61556 12.743L13.6556 7.69575C14.642 6.56354 14.5882 4.85338 13.517 3.78004Z" fill="#D63D46"/>
    <path d="M13.517 3.78004C12.4401 2.70168 10.7026 2.65789 9.57546 3.6702L8.617 4.5303L7.65781 3.67092C6.52704 2.65717 4.79318 2.70168 3.71338 3.78148C2.64364 4.85123 2.58979 6.56354 3.57554 7.69504L8.61556 12.743L13.6556 7.69575C14.642 6.56354 14.5882 4.85338 13.517 3.78004Z" fill="#D63D46"/>
</svg>
