<svg width="40" height="32" fill="none" xmlns="http://www.w3.org/2000/svg">
    <path d="M6.55517 10.0458L6.89103 10.2616C7.8026 10.8559 8.87245 11.1913 9.97626 11.2291H10.0153V18.0309H32.8382V4.25605H22.614L19.7162 1.39093C19.2739 0.94943 18.7426 0.597584 18.1541 0.356516C17.5568 0.113978 16.9131 -0.00766247 16.2639 -0.000693161H9.39046C8.97258 0.00124485 8.5608 0.095497 8.18761 0.274656L6.96133 0.870003C6.72102 0.990806 6.45181 1.0498 6.18026 1.04117H5.58665V-0.000693161H0.189453V11.6384H5.56321V10.0384H6.55517V10.0458ZM4.55563 10.6486H1.20484V0.974189H4.55563V10.6486ZM31.8228 5.24582V17.0337H11.0229V7.81327H11.0619C11.9117 7.87146 12.7578 7.65944 13.4676 7.21047L16.0764 9.67373C16.274 9.86432 16.5094 10.0156 16.7688 10.1189C17.0282 10.2221 17.3066 10.2753 17.5878 10.2753C17.869 10.2753 18.1473 10.2221 18.4067 10.1189C18.6662 10.0156 18.9015 9.86432 19.0992 9.67373L19.4038 9.28675C19.5789 9.01334 19.6858 8.70525 19.7162 8.38629C19.7494 8.0651 19.7012 7.74093 19.5756 7.44117L19.3179 7.03186C19.2623 6.94771 19.1997 6.86806 19.1304 6.79372L18.7555 6.39186L17.5995 5.24582H31.8228ZM5.56321 2.01605H6.11777C6.56954 2.02604 7.01711 1.93155 7.42216 1.7407L8.64063 1.13791C8.88268 1.02163 9.15067 0.962907 9.4217 0.966747H16.2873C16.7916 0.967141 17.2908 1.06328 17.7557 1.24954C18.2244 1.44198 18.649 1.72009 19.0054 2.06814L21.2237 4.23372H16.5919L15.2797 2.97605L14.5611 3.72024L18.3884 7.44117C18.492 7.54461 18.5742 7.66577 18.6305 7.79838C18.6904 7.93234 18.7197 8.07693 18.7164 8.22257C18.719 8.36813 18.6897 8.51258 18.6305 8.64675C18.5771 8.78071 18.4945 8.90246 18.3884 9.00396C18.2865 9.10874 18.1609 9.19016 18.0213 9.2421C17.8864 9.30075 17.7399 9.33118 17.5917 9.33141C17.4434 9.33118 17.297 9.30075 17.1621 9.2421C17.0224 9.19016 16.8969 9.10874 16.795 9.00396L13.6004 5.86349L13.2411 6.16117C12.728 6.58998 12.0724 6.83244 11.39 6.84582H11.3431C10.6752 6.84368 10.0291 6.62002 9.51543 6.21326L9.23424 5.99744L8.59377 6.74163L8.88276 6.97233C9.21229 7.2318 9.5844 7.43796 9.98407 7.58257V10.217H9.94502C9.04202 10.1775 8.16847 9.89922 7.42216 9.41327L6.82074 9.03373H5.56321V2.01605Z" fill="#1F1F1F"/>
    <path d="M20.1998 9.39044C19.84 9.74601 19.5959 10.1931 19.4968 10.6779C19.393 11.1772 19.4446 11.6945 19.6452 12.1662C19.839 12.6204 20.1674 13.0109 20.5903 13.29C21.0817 13.6129 21.6776 13.7587 22.2713 13.7014C22.8652 13.6441 23.4183 13.3875 23.8318 12.9774C24.3271 12.5084 24.6078 11.8717 24.6128 11.2062C24.6136 10.7103 24.4645 10.2246 24.1832 9.80718C23.9034 9.39929 23.5043 9.07847 23.0351 8.88439C22.7284 8.74902 22.3965 8.67311 22.0587 8.66113C21.891 8.66128 21.7236 8.67624 21.5588 8.70578C21.0429 8.79613 20.5686 9.03509 20.1998 9.39044ZM23.0351 10.1793C23.1697 10.3085 23.2763 10.4618 23.3487 10.6304C23.4211 10.799 23.4579 10.9795 23.4568 11.1616C23.45 11.4263 23.3662 11.6839 23.2147 11.9058C23.0568 12.1361 22.8314 12.3172 22.5664 12.4267C22.3929 12.4948 22.2073 12.5302 22.0197 12.5309C21.9263 12.5419 21.8319 12.5419 21.7385 12.5309C21.4594 12.4773 21.2036 12.3451 21.0043 12.1514C20.805 11.952 20.6696 11.7024 20.6142 11.4321C20.5588 11.1617 20.5858 10.882 20.6919 10.6258C20.7975 10.3685 20.9827 10.1479 21.223 9.99323C21.4518 9.84 21.7243 9.75695 22.0041 9.75509C22.1973 9.75457 22.3886 9.79192 22.566 9.86485C22.7433 9.93786 22.9031 10.0449 23.0351 10.1793Z" fill="#1F1F1F"/>
    <path d="M34.9379 31.7838C35.0346 31.8725 35.1629 31.9231 35.2972 31.9252H39.4134C39.5529 31.9252 39.6869 31.873 39.7862 31.7796C39.8857 31.6863 39.9425 31.5595 39.9445 31.4266V19.2071C39.9381 19.0728 39.8797 18.9455 39.7805 18.8499C39.683 18.7632 39.5545 18.7154 39.4212 18.7159H35.3362C35.2003 18.7135 35.0686 18.7615 34.9691 18.8499C34.8699 18.9455 34.8115 19.0728 34.8051 19.2071V21.9531H34.7426C33.516 21.2209 32.0972 20.8339 30.6498 20.8368H25.4167C24.9664 20.8363 24.5178 20.8889 24.081 20.9931L16.2235 22.9206C15.8913 23.002 15.582 23.1519 15.3174 23.3596C15.0582 23.5627 14.8478 23.8166 14.7004 24.1038L7.88161 22.5038C7.69585 22.4685 7.50808 22.4437 7.31924 22.4294C7.12154 22.4184 6.92334 22.4184 6.72563 22.4294C6.29723 22.4816 5.89343 22.6495 5.56184 22.9131C5.23965 23.1841 5.00187 23.5342 4.8745 23.9252C4.79833 24.1831 4.77706 24.4529 4.81194 24.7187C4.84681 24.9846 4.93713 25.2411 5.07757 25.4731C5.22968 25.7229 5.43339 25.9408 5.67639 26.1135C5.91938 26.2861 6.19661 26.4101 6.49131 26.4778L19.129 29.5587C19.7668 29.7162 20.4229 29.7962 21.0817 29.7968H30.6498C32.0725 29.7941 33.4668 29.4182 34.6801 28.7103H34.7426V31.4638C34.7511 31.5269 34.7728 31.5877 34.8063 31.6426C34.8398 31.6976 34.8845 31.7456 34.9379 31.7838ZM35.8596 19.7057H38.8589V30.9354H35.8596V19.7057ZM34.7582 27.4824L34.5239 27.6387C33.397 28.4147 32.0402 28.8291 30.6498 28.822H21.0661C20.5028 28.8147 19.9421 28.7473 19.3946 28.621L6.76468 25.5327C6.51135 25.4765 6.28553 25.3401 6.12421 25.1457C5.9651 24.9517 5.87484 24.7146 5.86645 24.4685C5.86792 24.3707 5.88102 24.2733 5.90551 24.1782C6.00137 23.9138 6.18863 23.6881 6.43664 23.5382C6.66977 23.4004 6.94537 23.3427 7.21771 23.3745H7.38173L14.5207 25.1159C14.5302 25.2243 14.5511 25.3316 14.5832 25.4359C14.7294 25.8841 15.0235 26.2753 15.4218 26.5515C15.82 26.8277 16.3011 26.9741 16.7936 26.9689C16.9916 26.9699 17.1887 26.9448 17.3794 26.8945L22.3392 25.6815C22.4326 25.6649 22.5192 25.6236 22.5892 25.5624C22.6613 25.5011 22.713 25.4209 22.7376 25.3317C22.7611 25.2464 22.7611 25.1567 22.7376 25.0713C22.7141 24.9877 22.6651 24.9127 22.597 24.8554C22.5266 24.7892 22.4367 24.7451 22.3392 24.7289C22.247 24.7066 22.1503 24.7066 22.0581 24.7289L17.1217 26.0461C17.0205 26.0572 16.9183 26.0572 16.8171 26.0461C16.5671 26.0467 16.3235 25.9711 16.1219 25.8303C15.9099 25.6863 15.7534 25.4797 15.6767 25.2424C15.6479 25.1533 15.6347 25.0603 15.6377 24.9671C15.6366 24.9497 15.6366 24.9323 15.6377 24.915V24.8554C15.6701 24.6342 15.7707 24.427 15.9267 24.2601C16.0844 24.0939 16.2914 23.9772 16.5203 23.9252L24.3778 22.0052C24.7269 21.9164 25.0866 21.8713 25.4479 21.8713H30.6498C32.0451 21.8484 33.4122 22.2469 34.5552 23.0099L34.8051 23.181V27.475L34.7582 27.4824Z" fill="#1F1F1F"/>
</svg>
