<svg width="36" height="34" fill="none" xmlns="http://www.w3.org/2000/svg">
    <g clip-path="url(#clip0_253_6783)">
        <path d="M15.5516 8.5H3.53491V9.32233H15.5516V8.5Z" fill="#1F1F1F"/>
        <path d="M24.447 33.763H35.1526C35.215 33.7641 35.2771 33.7531 35.3349 33.7309C35.3928 33.7086 35.4454 33.6754 35.4896 33.6334C35.5337 33.5913 35.5685 33.5412 35.5919 33.486C35.6152 33.4309 35.6268 33.3718 35.6256 33.3123V14.6123C35.6197 12.6891 34.814 10.8466 33.3849 9.48853L29.7168 5.96995C29.706 5.94187 29.706 5.91106 29.7168 5.88297V2.72018C29.7168 2.36031 29.6419 2.00402 29.4964 1.67193C29.3508 1.33985 29.1376 1.03858 28.8689 0.785584C28.6004 0.532591 28.2817 0.332901 27.9315 0.198082C27.5813 0.0632647 27.2065 -0.00400066 26.8288 0.000183904H3.03596C2.2817 0.00226998 1.55895 0.288677 1.0256 0.796841C0.492245 1.30501 0.191643 1.99363 0.189453 2.71228V15.1816C0.190082 15.8518 0.451924 16.4979 0.924202 16.9947C1.39648 17.4914 2.04554 17.8034 2.7455 17.8699C2.76748 17.8716 2.78851 17.8792 2.80614 17.8918C2.82378 17.9043 2.83729 17.9215 2.84509 17.9411L5.08579 23.476C5.21751 23.8112 5.41759 24.1183 5.67447 24.3794C5.93135 24.6407 6.23995 24.8508 6.58249 24.9978C6.92501 25.1448 7.2947 25.2258 7.67023 25.236C8.04576 25.2462 8.4197 25.1855 8.77048 25.0574L22.7292 19.9336C22.7493 19.9226 22.7722 19.9167 22.7956 19.9167C22.8189 19.9167 22.8418 19.9226 22.862 19.9336C22.8745 19.9526 22.8811 19.9745 22.8811 19.9969C22.8811 20.0193 22.8745 20.0413 22.862 20.0602C22.3964 21.2271 22.22 22.4809 22.3467 23.7235C22.4734 24.9661 22.8996 26.1641 23.5923 27.2239L23.9325 27.7457C23.9382 27.7665 23.9382 27.7883 23.9325 27.809V33.3439C23.9355 33.4042 23.9515 33.4634 23.9794 33.5176C24.0073 33.5718 24.0465 33.6201 24.0948 33.6594C24.143 33.6986 24.1991 33.7281 24.2597 33.7459C24.3202 33.7637 24.384 33.7695 24.447 33.763ZM34.6878 32.7509C34.6878 32.7823 34.6747 32.8125 34.6514 32.8348C34.628 32.857 34.5964 32.8695 34.5634 32.8695H25.0861C25.053 32.8695 25.0214 32.857 24.998 32.8348C24.9747 32.8125 24.9616 32.7823 24.9616 32.7509V28.2123C24.9616 28.1808 24.9747 28.1507 24.998 28.1284C25.0214 28.1061 25.053 28.0937 25.0861 28.0937H34.5634C34.5964 28.0937 34.628 28.1061 34.6514 28.1284C34.6747 28.1507 34.6878 28.1808 34.6878 28.2123V32.7509ZM29.7085 15.1816V9.27504C29.7094 9.24768 29.7196 9.22135 29.7376 9.19993C29.7555 9.17858 29.7803 9.16332 29.8081 9.15644C29.8354 9.15264 29.8632 9.15755 29.8873 9.17043C29.9113 9.18332 29.9302 9.20341 29.9409 9.2276L31.7252 13.695C31.8175 13.9193 31.8625 14.1587 31.8574 14.3995C31.8523 14.6403 31.7973 14.8778 31.6954 15.0983C31.5936 15.3187 31.4471 15.5178 31.2641 15.6841C31.0812 15.8504 30.8656 15.9806 30.6297 16.0671L29.5923 16.4467C29.563 16.4577 29.5303 16.4577 29.5011 16.4467C29.4887 16.4263 29.4821 16.4031 29.4821 16.3795C29.4821 16.3559 29.4887 16.3327 29.5011 16.3123C29.6443 15.9519 29.7037 15.5661 29.6753 15.1816H29.7085ZM1.16042 15.1816V2.71228C1.1626 2.2306 1.36441 1.76923 1.72189 1.42862C2.07938 1.08802 2.5636 0.89575 3.06916 0.89367H26.8288C27.3344 0.89575 27.8186 1.08802 28.1761 1.42862C28.5336 1.76923 28.7354 2.2306 28.7376 2.71228V15.1816C28.7462 15.2869 28.7462 15.3926 28.7376 15.4978C28.7331 15.5193 28.722 15.539 28.7058 15.5545C28.6895 15.57 28.6688 15.5805 28.6463 15.5848C28.6277 15.5961 28.6061 15.602 28.584 15.602C28.562 15.602 28.5404 15.5961 28.5218 15.5848L23.0777 10.3899C22.5186 9.83422 21.7508 9.51288 20.9431 9.49652C20.1354 9.48023 19.3539 9.77034 18.7706 10.3029C18.1874 10.8356 17.85 11.5672 17.8329 12.3369C17.8158 13.1064 18.1202 13.851 18.6793 14.4067L20.9366 16.8025C20.9514 16.8206 20.9594 16.8428 20.9594 16.8657C20.9594 16.8887 20.9514 16.911 20.9366 16.929C20.9282 16.9499 20.9135 16.9678 20.8942 16.9805C20.875 16.9932 20.8521 17.0001 20.8287 17.0002H3.03596C2.53041 16.9981 2.04618 16.8058 1.68869 16.4653C1.33121 16.1246 1.12941 15.6632 1.12723 15.1816H1.16042ZM4.67914 19.6806H4.59615C4.58011 19.6768 4.56546 19.6689 4.55377 19.6578C4.54208 19.6466 4.53378 19.6327 4.52976 19.6174L3.89905 18.036C3.8908 18.0186 3.88653 17.9998 3.88653 17.9806C3.88653 17.9616 3.8908 17.9427 3.89905 17.9253C3.90973 17.9091 3.92437 17.8956 3.94171 17.886C3.95905 17.8763 3.97858 17.8709 3.99863 17.8699H8.85347C8.86874 17.8689 8.88409 17.8707 8.89862 17.8753C8.91314 17.8799 8.92658 17.8872 8.93812 17.8967C8.94974 17.9062 8.9592 17.9179 8.966 17.931C8.97281 17.944 8.97688 17.9582 8.97795 17.9727C8.9836 17.9989 8.97912 18.026 8.96542 18.0493C8.95165 18.0725 8.92966 18.0903 8.90326 18.0992L4.67084 19.6806H4.67914ZM22.8039 18.8899L8.43023 24.1955C8.20982 24.2736 7.97659 24.3138 7.74142 24.3141C7.47502 24.3167 7.21137 24.2627 6.96963 24.156C6.52344 23.9514 6.17612 23.5922 5.99866 23.1518L5.0028 20.6611C4.99162 20.6327 4.99227 20.6013 5.00461 20.5734C5.01696 20.5455 5.04007 20.5231 5.06919 20.5109L12.1481 17.9095H12.2145H21.9574C21.9921 17.9108 22.0249 17.925 22.0487 17.949L22.8205 18.7397C22.8299 18.7568 22.8348 18.7758 22.8348 18.795C22.8348 18.8143 22.8299 18.8334 22.8205 18.8504C22.8176 18.8649 22.8116 18.8785 22.803 18.8908C22.7945 18.903 22.7835 18.9135 22.7707 18.9216L22.8039 18.8899ZM24.2977 19.3406C24.3465 19.2583 24.3665 19.1632 24.3545 19.0693C24.3426 18.9754 24.2994 18.8876 24.2313 18.8188L19.3598 13.7504C18.9905 13.3627 18.7945 12.853 18.8139 12.3296C18.8333 11.8063 19.0664 11.3109 19.4636 10.949C19.8608 10.5871 20.3906 10.3873 20.9401 10.3921C21.4897 10.397 22.0155 10.6062 22.4055 10.975L31.7252 19.9495L32.3891 19.3169L30.3143 17.3006C30.3049 17.2836 30.3 17.2646 30.3 17.2453C30.3 17.226 30.3049 17.207 30.3143 17.1899C30.3175 17.1704 30.3261 17.1521 30.3392 17.1368C30.3524 17.1215 30.3695 17.1098 30.389 17.103L30.9949 16.8816C31.346 16.7552 31.6676 16.5641 31.9411 16.3191C32.2146 16.0742 32.4348 15.7803 32.5889 15.4542C32.7431 15.1281 32.8282 14.7762 32.8395 14.4188C32.8508 14.0613 32.788 13.7052 32.6546 13.3709L30.6463 8.38946C30.6361 8.36392 30.6355 8.33577 30.6446 8.30984C30.6537 8.2839 30.6719 8.26176 30.6961 8.24714C30.7194 8.23219 30.7468 8.22421 30.7749 8.22421C30.8031 8.22421 30.8305 8.23219 30.8538 8.24714L32.7791 10.0895C34.0357 11.2841 34.7431 12.9051 34.7459 14.5964V27.0816C34.7459 27.113 34.7328 27.1432 34.7095 27.1654C34.6861 27.1877 34.6545 27.2002 34.6215 27.2002H24.779C24.7578 27.1993 24.7371 27.1938 24.7184 27.1843C24.6997 27.1747 24.6836 27.1612 24.6711 27.1448L24.4138 26.7495C23.6876 25.6491 23.2892 24.3812 23.2615 23.0817C23.2337 21.7821 23.5775 20.4999 24.2562 19.3723L24.2977 19.3406Z" fill="#1F1F1F"/>
        <path d="M5.66772 11.9716H3.53491V12.8651H5.66772V11.9716Z" fill="#1F1F1F"/>
        <path d="M9.38523 11.9717H7.25244V12.8652H9.38523V11.9717Z" fill="#1F1F1F"/>
    </g>
    <defs>
        <clipPath id="clip0_253_6783">
            <rect width="35.6851" height="34" fill="white" transform="translate(0.189453)"/>
        </clipPath>
    </defs>
</svg>
