<svg width="34" height="34" viewBox="0 0 34 34" fill="none" xmlns="http://www.w3.org/2000/svg">
    <path d="M16.75 15C15.7611 15 14.7944 14.7068 13.9722 14.1573C13.1499 13.6079 12.509 12.8271 12.1306 11.9134C11.7522 10.9998 11.6531 9.99446 11.8461 9.02455C12.039 8.05465 12.5152 7.16373 13.2145 6.46447C13.9137 5.76521 14.8046 5.289 15.7746 5.09608C16.7445 4.90315 17.7498 5.00217 18.6634 5.3806C19.577 5.75904 20.3579 6.39991 20.9074 7.22215C21.4568 8.0444 21.75 9.0111 21.75 10C21.75 11.3261 21.2232 12.5979 20.2855 13.5355C19.3479 14.4732 18.0761 15 16.75 15ZM16.75 6.5C16.0578 6.5 15.3811 6.70527 14.8055 7.08986C14.2299 7.47444 13.7813 8.02107 13.5164 8.66061C13.2515 9.30015 13.1822 10.0039 13.3173 10.6828C13.4523 11.3618 13.7856 11.9854 14.2751 12.4749C14.7646 12.9644 15.3883 13.2977 16.0672 13.4328C16.7461 13.5678 17.4499 13.4985 18.0894 13.2336C18.7289 12.9687 19.2756 12.5201 19.6601 11.9445C20.0447 11.3689 20.25 10.6922 20.25 10C20.25 9.07174 19.8813 8.18151 19.2249 7.52513C18.5685 6.86875 17.6783 6.5 16.75 6.5Z" fill="#1F1F1F"/>
    <path d="M23.75 26.75H9.75C9.02065 26.75 8.32118 26.4603 7.80546 25.9445C7.28973 25.4288 7 24.7293 7 24C7.00265 21.9454 7.82001 19.9757 9.27284 18.5228C10.7257 17.07 12.6954 16.2526 14.75 16.25H18.75C20.8046 16.2526 22.7743 17.07 24.2272 18.5228C25.68 19.9757 26.4974 21.9454 26.5 24C26.5 24.7293 26.2103 25.4288 25.6945 25.9445C25.1788 26.4603 24.4793 26.75 23.75 26.75ZM14.75 17.75C13.0924 17.75 11.5027 18.4085 10.3306 19.5806C9.15848 20.7527 8.5 22.3424 8.5 24C8.5 24.3315 8.6317 24.6495 8.86612 24.8839C9.10054 25.1183 9.41848 25.25 9.75 25.25H23.75C24.0815 25.25 24.3995 25.1183 24.6339 24.8839C24.8683 24.6495 25 24.3315 25 24C25 22.3424 24.3415 20.7527 23.1694 19.5806C21.9973 18.4085 20.4076 17.75 18.75 17.75H14.75Z" fill="#1F1F1F"/>
</svg>
