<svg width="18" height="18" fill="none" xmlns="http://www.w3.org/2000/svg">
    <path d="M14.2525 12.8449L17.9777 16.4132L16.747 17.5924L13.0226 14.0232C11.6368 15.0876 9.91316 15.6665 8.13707 15.6641C3.81602 15.6641 0.309082 12.3041 0.309082 8.16406C0.309082 4.02406 3.81602 0.664062 8.13707 0.664062C12.4581 0.664062 15.9651 4.02406 15.9651 8.16406C15.9676 9.86573 15.3634 11.5172 14.2525 12.8449ZM12.5077 12.2266C13.6115 11.139 14.228 9.68109 14.2255 8.16406C14.2255 4.94073 11.5005 2.33073 8.13707 2.33073C4.77278 2.33073 2.04864 4.94073 2.04864 8.16406C2.04864 11.3866 4.77278 13.9974 8.13707 13.9974C9.72044 13.9998 11.2421 13.4092 12.3772 12.3516L12.5077 12.2266Z" fill="#7D7D7D"/>
</svg>
