<svg width="19" height="19" viewBox="7 6 20 20" fill="none" xmlns="http://www.w3.org/2000/svg">
    <path d="M24 25.75H10C9.20435 25.75 8.44129 25.4339 7.87868 24.8713C7.31607 24.3087 7 23.5456 7 22.75V13.75C7 12.9544 7.31607 12.1913 7.87868 11.6287C8.44129 11.0661 9.20435 10.75 10 10.75H24C24.7956 10.75 25.5587 11.0661 26.1213 11.6287C26.6839 12.1913 27 12.9544 27 13.75V22.75C27 23.5456 26.6839 24.3087 26.1213 24.8713C25.5587 25.4339 24.7956 25.75 24 25.75ZM10 12.25C9.60218 12.25 9.22064 12.408 8.93934 12.6893C8.65804 12.9706 8.5 13.3522 8.5 13.75V22.75C8.5 23.1478 8.65804 23.5294 8.93934 23.8107C9.22064 24.092 9.60218 24.25 10 24.25H24C24.3978 24.25 24.7794 24.092 25.0607 23.8107C25.342 23.5294 25.5 23.1478 25.5 22.75V13.75C25.5 13.3522 25.342 12.9706 25.0607 12.6893C24.7794 12.408 24.3978 12.25 24 12.25H10Z" fill="#1F1F1F"/>
    <path d="M12.25 14.75C12.25 14.9489 12.329 15.1397 12.4697 15.2803C12.6103 15.421 12.8011 15.5 13 15.5C13.1989 15.5 13.3897 15.421 13.5303 15.2803C13.671 15.1397 13.75 14.9489 13.75 14.75H12.25ZM20.25 14.75C20.25 14.9489 20.329 15.1397 20.4697 15.2803C20.6103 15.421 20.8011 15.5 21 15.5C21.1989 15.5 21.3897 15.421 21.5303 15.2803C21.671 15.1397 21.75 14.9489 21.75 14.75H20.25ZM13.75 14.75V10.75H12.25V14.75H13.75ZM20.25 10.75V14.75H21.75V10.75H20.25ZM17 7.5C17.8611 7.50264 18.6863 7.84589 19.2952 8.45482C19.9041 9.06374 20.2474 9.88886 20.25 10.75H21.75C21.75 9.49022 21.2496 8.28204 20.3588 7.39124C19.468 6.50044 18.2598 6 17 6V7.5ZM17 6C15.7402 6 14.532 6.50044 13.6412 7.39124C12.7504 8.28204 12.25 9.49022 12.25 10.75H13.75C13.7526 9.88886 14.0959 9.06374 14.7048 8.45482C15.3137 7.84589 16.1389 7.50264 17 7.5V6Z" fill="#1F1F1F"/>
</svg>
