<svg width="20" height="20" viewBox="7 6 20 20" fill="none" xmlns="http://www.w3.org/2000/svg">
    <path d="M15.75 13.95C15.75 14.3918 15.3918 14.75 14.95 14.75H7.8C7.35817 14.75 7 14.3918 7 13.95V6.8C7 6.35817 7.35817 6 7.8 6H14.95C15.3918 6 15.75 6.35817 15.75 6.8V13.95ZM8.25 12.7C8.25 13.1418 8.60817 13.5 9.05 13.5H13.7C14.1418 13.5 14.5 13.1418 14.5 12.7V8.05C14.5 7.60817 14.1418 7.25 13.7 7.25H9.05C8.60817 7.25 8.25 7.60817 8.25 8.05V12.7Z" fill="#1F1F1F"/>
    <path d="M15.75 25.2C15.75 25.6418 15.3918 26 14.95 26H7.8C7.35817 26 7 25.6418 7 25.2V18.05C7 17.6082 7.35817 17.25 7.8 17.25H14.95C15.3918 17.25 15.75 17.6082 15.75 18.05V25.2ZM8.25 23.95C8.25 24.3918 8.60817 24.75 9.05 24.75H13.7C14.1418 24.75 14.5 24.3918 14.5 23.95V19.3C14.5 18.8582 14.1418 18.5 13.7 18.5H9.05C8.60817 18.5 8.25 18.8582 8.25 19.3V23.95Z" fill="#1F1F1F"/>
    <path d="M27 13.95C27 14.3918 26.6418 14.75 26.2 14.75H19.05C18.6082 14.75 18.25 14.3918 18.25 13.95V6.8C18.25 6.35817 18.6082 6 19.05 6H26.2C26.6418 6 27 6.35817 27 6.8V13.95ZM19.5 12.7C19.5 13.1418 19.8582 13.5 20.3 13.5H24.95C25.3918 13.5 25.75 13.1418 25.75 12.7V8.05C25.75 7.60817 25.3918 7.25 24.95 7.25H20.3C19.8582 7.25 19.5 7.60817 19.5 8.05V12.7Z" fill="#1F1F1F"/>
    <path d="M27 25.2C27 25.6418 26.6418 26 26.2 26H19.05C18.6082 26 18.25 25.6418 18.25 25.2V18.05C18.25 17.6082 18.6082 17.25 19.05 17.25H26.2C26.6418 17.25 27 17.6082 27 18.05V25.2ZM19.5 23.95C19.5 24.3918 19.8582 24.75 20.3 24.75H24.95C25.3918 24.75 25.75 24.3918 25.75 23.95V19.3C25.75 18.8582 25.3918 18.5 24.95 18.5H20.3C19.8582 18.5 19.5 18.8582 19.5 19.3V23.95Z" fill="#1F1F1F"/>
</svg>
